<?xml version="1.0" encoding="UTF-8" standalone="no"?>
<!-- Created with Inkscape (http://www.inkscape.org/) -->

<svg
   xmlns:dc="http://purl.org/dc/elements/1.1/"
   xmlns:cc="http://creativecommons.org/ns#"
   xmlns:rdf="http://www.w3.org/1999/02/22-rdf-syntax-ns#"
   xmlns:svg="http://www.w3.org/2000/svg"
   xmlns="http://www.w3.org/2000/svg"
   xmlns:sodipodi="http://sodipodi.sourceforge.net/DTD/sodipodi-0.dtd"
   xmlns:inkscape="http://www.inkscape.org/namespaces/inkscape"
   width="500"
   height="385"
   id="svg2"
   version="1.1"
   inkscape:version="0.48.5 r10040"
   sodipodi:docname="Tara Strong signature.svg">
  <defs
     id="defs4" />
  <sodipodi:namedview
     id="base"
     pagecolor="#ffffff"
     bordercolor="#666666"
     borderopacity="1.0"
     inkscape:pageopacity="0.0"
     inkscape:pageshadow="2"
     inkscape:zoom="1.4"
     inkscape:cx="236.78492"
     inkscape:cy="205.5817"
     inkscape:document-units="px"
     inkscape:current-layer="layer1"
     showgrid="false"
     inkscape:window-width="1920"
     inkscape:window-height="1018"
     inkscape:window-x="1912"
     inkscape:window-y="-8"
     inkscape:window-maximized="1" />
  <metadata
     id="metadata7">
    <rdf:RDF>
      <cc:Work
         rdf:about="">
        <dc:format>image/svg+xml</dc:format>
        <dc:type
           rdf:resource="http://purl.org/dc/dcmitype/StillImage" />
        <dc:title></dc:title>
      </cc:Work>
    </rdf:RDF>
  </metadata>
  <g
     inkscape:label="Layer 1"
     inkscape:groupmode="layer"
     id="layer1"
     transform="translate(0,-667.36218)">
    <g
       id="g3774"
       transform="matrix(1.3636192,0,0,1.3628561,-256.40375,152.58065)">
      <path
         sodipodi:nodetypes="cc"
         inkscape:connector-curvature="0"
         id="path2996"
         d="M 190.03123,517.48641 C 242.1247,473.08126 348.72537,404.99721 438.76334,379.72314"
         style="fill:none;stroke:#000000;stroke-width:3.66773922;stroke-linecap:round;stroke-linejoin:round;stroke-miterlimit:4;stroke-opacity:1;stroke-dasharray:none" />
      <path
         sodipodi:nodetypes="cc"
         inkscape:connector-curvature="0"
         id="path3766"
         d="m 292.6917,453.8468 c -0.33282,11.47764 -47.7411,121.16557 -19.95051,93.94419"
         style="fill:none;stroke:#000000;stroke-width:4;stroke-linecap:round;stroke-linejoin:round;stroke-miterlimit:4;stroke-opacity:1;stroke-dasharray:none" />
      <path
         sodipodi:nodetypes="cssccsszcc"
         inkscape:connector-curvature="0"
         id="path3768"
         d="m 331.8281,488.0284 c 6.24112,-13.96622 -7.10898,-10.91173 -10.77812,0.28837 -3.11865,9.51968 0.71424,20.75758 10.78516,-0.25107 0.69472,-1.44924 2.69783,-10.92228 5.68211,-15.65737 -6.60637,53.72396 25.48105,-4.74826 28.41054,-15.27856 -10.07297,57.22902 35.49813,-16.12821 21.46574,-15.53109 -4.60021,0.19575 -11.52677,18.25998 -12.74433,23.1882 -4.30763,17.43561 8.44771,7.2136 13.1952,-1.42807 4.74749,-8.64167 13.27216,-15.95119 10.4714,-11.59547 -4.41357,7.50396 -5.03695,8.91887 -7.00793,20.64499"
         style="fill:none;stroke:#000000;stroke-width:3.66773922;stroke-linecap:round;stroke-linejoin:round;stroke-miterlimit:4;stroke-opacity:1;stroke-dasharray:none" />
      <path
         sodipodi:nodetypes="czscc"
         inkscape:connector-curvature="0"
         id="path3770"
         d="m 292.18662,595.52069 c -67.05659,61.13756 43.65441,33.71547 67.23033,23.641 23.57592,-10.07447 41.25685,-19.84507 46.45664,-25.52128 14.3037,-15.61421 -79.66232,-27.57865 -88.18061,-46.3545 -5.2691,-13.94538 140.61622,-83.82097 115.915,-51.51778"
         style="fill:none;stroke:#000000;stroke-width:3.66773922;stroke-linecap:round;stroke-linejoin:round;stroke-miterlimit:4;stroke-opacity:1;stroke-dasharray:none" />
      <path
         sodipodi:nodetypes="cczsssssc"
         inkscape:connector-curvature="0"
         id="path3772"
         d="m 416.94046,514.70849 c -0.72063,-4.84681 -1.76776,-16.92006 -1.76776,-16.92006 -25.28551,64.11968 -0.4374,76.61724 20.96066,49.75002 21.39806,-26.86722 57.44649,-88.29629 60.73542,-55.55839 5.32326,52.98758 30.12807,65.14748 50.63122,104.66784 12.91304,24.89021 1.29025,45.4944 -29.28571,53.21428 -63.21569,15.96084 -118.66179,9.71999 -178.25761,-24.49492 -29.69,-17.0455 -35.21386,-25.01939 -19.85031,-41.90289 38.24456,-42.02816 157.08046,-86.22809 210.25077,-84.67362"
         style="fill:none;stroke:#000000;stroke-width:3.66773922;stroke-linecap:round;stroke-linejoin:round;stroke-miterlimit:4;stroke-opacity:1;stroke-dasharray:none" />
    </g>
  </g>
</svg>
